{"asset":{"generator":"Khronos glTF Spline I/O v0.0.1","version":"2.0"},"scenes":[{"nodes":[0]}],"nodes":[{"name":"","children":[1,2,3,12]},{"name":"","camera":0,"translation":[-59.5229632458616,8.196128217190713,998.1932880603172],"rotation":[-0.004096281670995717,-0.02977543360406903,-0.00012201623799723479,0.9995482125151337]},{"name":"Directional Light","translation":[200,300,300],"rotation":[-0.4062840720729887,0.12301291902225084,-0.2623788760260691,0.8665785595944042],"extensions":{"KHR_lights_punctual":{"light":0}}},{"name":"coin-logo","matrix":[1,0,0,0,0,1,0,0,0,0,1,0,0,0,0,1],"children":[4,5,6,7,8,9,10,11]},{"name":"Cylinder001","matrix":[1.3389261960983276,0,0,0,0,-2.5011121913569245e-8,0.186151668429373,0,0,-1.3389261960983154,-1.7989656824694023e-7,0,0,0,2.986951287462554,1],"mesh":0},{"name":"Text005","matrix":[1,0,0,0,0,-1.3435883827739303e-7,0.9999999999999909,0,0,-0.9999999999999909,-1.3435883827739303e-7,0,5.0383540152138835,-30.907079397761525,2.7277685869888075,1],"mesh":1},{"name":"Text004","matrix":[0.7229348421096802,0,0,0,0,-9.713268553610719e-8,0.7229348421096736,0,0,-0.7229348421096736,-9.713268553610719e-8,0,-38.04123126340859,-8.492901332353737,3.1480841733409037,1],"mesh":2},{"name":"Text003","matrix":[0.7229348421096802,0,0,0,0,-9.713268553610719e-8,0.7229348421096736,0,0,-0.7229348421096736,-9.713268553610719e-8,0,-31.161796126088593,-5.319718312254019,3.1480841733409037,1],"mesh":3},{"name":"Text002","matrix":[0.7229348421096802,0,0,0,0,-9.713268553610719e-8,0.7229348421096736,0,0,-0.7229348421096736,-9.713268553610719e-8,0,-37.280386203229014,-1.1945691136053211,3.1480841733409037,1],"mesh":4},{"name":"Text001","matrix":[0.8119727373123169,0,0,0,0,-1.0909571369819772e-7,0.8119727373123095,0,0,-0.8119727373123095,-1.0909571369819772e-7,0,-3.29051606115027,-10.939616588345572,2.8376290029628457,1],"mesh":5},{"name":"Text","matrix":[0.8527395129203796,0,0,0,0,1.7294915967586764e-7,0.8527395129203621,0,0,-0.8527395129203621,1.7294915967586764e-7,0,-11.812461621935455,4.88330190372064,3.110747702190604,1],"mesh":6},{"name":"Cylinder","matrix":[1.3389261960983276,0,0,0,0,-1.1575240888773731e-8,0.08615168929099958,0,0,-1.3389261960983154,-1.7989656824694023e-7,0,0,0,0,1],"mesh":7},{"name":"Point Light","translation":[-99.62088558379182,-47.80570329035109,116.28709124145092],"extensions":{"KHR_lights_punctual":{"light":1}}}],"cameras":[{"type":"orthographic","orthographic":{"xmag":2560,"ymag":1272,"zfar":100000,"znear":-100000}}],"meshes":[{"primitives":[{"attributes":{"POSITION":1,"NORMAL":2,"TEXCOORD_0":3},"indices":0}]},{"primitives":[{"attributes":{"POSITION":5,"NORMAL":6,"TEXCOORD_0":7},"indices":4}]},{"primitives":[{"attributes":{"POSITION":9,"NORMAL":10,"TEXCOORD_0":11},"indices":8}]},{"primitives":[{"attributes":{"POSITION":13,"NORMAL":14,"TEXCOORD_0":15},"indices":12}]},{"primitives":[{"attributes":{"POSITION":17,"NORMAL":18,"TEXCOORD_0":19},"indices":16}]},{"primitives":[{"attributes":{"POSITION":21,"NORMAL":22,"TEXCOORD_0":23},"indices":20}]},{"primitives":[{"attributes":{"POSITION":25,"NORMAL":26,"TEXCOORD_0":27},"indices":24}]},{"primitives":[{"attributes":{"POSITION":29,"NORMAL":30,"TEXCOORD_0":31},"indices":28}]}],"buffers":[{"uri":"data:application/octet-stream;base64,","byteLength":21932},{"uri":"data:application/octet-stream;base64,","byteLength":66440},{"uri":"data:application/octet-stream;base64,","byteLength":71856},{"uri":"data:application/octet-stream;base64,","byteLength":648},{"uri":"data:application/octet-stream;base64,","byteLength":77712},{"uri":"data:application/octet-stream;base64,","byteLength":117952},{"uri":"data:application/octet-stream;base64,","byteLength":87456},{"uri":"data:application/octet-stream;base64,","byteLength":205696}],"bufferViews":[{"buffer":0,"byteOffset":0,"byteLength":3372,"target":34963},{"buffer":0,"byteOffset":3372,"byteLength":6960,"target":34962},{"buffer":0,"byteOffset":10332,"byteLength":6960,"target":34962},{"buffer":0,"byteOffset":17292,"byteLength":4640,"target":34962},{"buffer":1,"byteOffset":0,"byteLength":6792,"target":34963},{"buffer":1,"byteOffset":6792,"byteLength":22368,"target":34962},{"buffer":1,"byteOffset":29160,"byteLength":22368,"target":34962},{"buffer":1,"byteOffset":51528,"byteLength":14912,"target":34962},{"buffer":2,"byteOffset":0,"byteLength":7344,"target":34963},{"buffer":2,"byteOffset":7344,"byteLength":24192,"target":34962},{"buffer":2,"byteOffset":31536,"byteLength":24192,"target":34962},{"buffer":2,"byteOffset":55728,"byteLength":16128,"target":34962},{"buffer":3,"byteOffset":0,"byteLength":72,"target":34963},{"buffer":3,"byteOffset":72,"byteLength":216,"target":34962},{"buffer":3,"byteOffset":288,"byteLength":216,"target":34962},{"buffer":3,"byteOffset":504,"byteLength":144,"target":34962},{"buffer":4,"byteOffset":0,"byteLength":8016,"target":34963},{"buffer":4,"byteOffset":8016,"byteLength":26136,"target":34962},{"buffer":4,"byteOffset":34152,"byteLength":26136,"target":34962},{"buffer":4,"byteOffset":60288,"byteLength":17424,"target":34962},{"buffer":5,"byteOffset":0,"byteLength":12192,"target":34963},{"buffer":5,"byteOffset":12192,"byteLength":39660,"target":34962},{"buffer":5,"byteOffset":51852,"byteLength":39660,"target":34962},{"buffer":5,"byteOffset":91512,"byteLength":26440,"target":34962},{"buffer":6,"byteOffset":0,"byteLength":8928,"target":34963},{"buffer":6,"byteOffset":8928,"byteLength":29448,"target":34962},{"buffer":6,"byteOffset":38376,"byteLength":29448,"target":34962},{"buffer":6,"byteOffset":67824,"byteLength":19632,"target":34962},{"buffer":7,"byteOffset":0,"byteLength":30240,"target":34963},{"buffer":7,"byteOffset":30240,"byteLength":65796,"target":34962},{"buffer":7,"byteOffset":96036,"byteLength":65796,"target":34962},{"buffer":7,"byteOffset":161832,"byteLength":43864,"target":34962}],"accessors":[{"bufferView":0,"byteOffset":0,"componentType":5123,"count":1686,"type":"SCALAR","min":[0],"max":[579]},{"bufferView":1,"byteOffset":0,"componentType":5126,"count":580,"type":"VEC3","min":[-10.969995498657227,-40.322689056396484,-22.34762191772461],"max":[11.572936058044434,-28.773061752319336,26.429941177368164]},{"bufferView":2,"byteOffset":0,"componentType":5126,"count":580,"type":"VEC3","min":[-0.9998902082443237,-1,-0.999738335609436],"max":[0.9999279379844666,1,0.999289333820343]},{"bufferView":3,"byteOffset":0,"componentType":5126,"count":580,"type":"VEC2","min":[0,0.6359679102897644],"max":[0.8930966854095459,1]},{"bufferView":4,"byteOffset":0,"componentType":5123,"count":3396,"type":"SCALAR","min":[0],"max":[1863]},{"bufferView":5,"byteOffset":0,"componentType":5126,"count":1864,"type":"VEC3","min":[0.4054466485977173,-0.7453063130378723,-8.240107536315918],"max":[24.717937469482422,0.7453063130378723,0.10732411593198776]},{"bufferView":6,"byteOffset":0,"componentType":5126,"count":1864,"type":"VEC3","min":[-0.9996016025543213,-1,-0.9999948740005493],"max":[0.9998840093612671,1,0.9999948740005493]},{"bufferView":7,"byteOffset":0,"componentType":5126,"count":1864,"type":"VEC2","min":[0,0],"max":[1,1]},{"bufferView":8,"byteOffset":0,"componentType":5123,"count":3672,"type":"SCALAR","min":[0],"max":[2015]},{"bufferView":9,"byteOffset":0,"componentType":5126,"count":2016,"type":"VEC3","min":[2.0887210369110107,-0.37265315651893616,-4.828840255737305],"max":[17.665624618530273,0.37265315651893616,0.06372369825839996]},{"bufferView":10,"byteOffset":0,"componentType":5126,"count":2016,"type":"VEC3","min":[-0.9997153282165527,-1,-0.9999968409538269],"max":[0.9999684691429138,1,0.9999963641166687]},{"bufferView":11,"byteOffset":0,"componentType":5126,"count":2016,"type":"VEC2","min":[0,0],"max":[1,1]},{"bufferView":12,"byteOffset":0,"componentType":5123,"count":36,"type":"SCALAR","min":[0],"max":[17]},{"bufferView":13,"byteOffset":0,"componentType":5126,"count":18,"type":"VEC3","min":[0.5381112098693848,-0.3726530969142914,-4.828840255737305],"max":[1.2319915294647217,0.3726530969142914,0]},{"bufferView":14,"byteOffset":0,"componentType":5126,"count":18,"type":"VEC3","min":[-0.7071067690849304,-1,-0.7071067690849304],"max":[0.7071067690849304,1,0.7071067690849304]},{"bufferView":15,"byteOffset":0,"componentType":5126,"count":18,"type":"VEC2","min":[0,0],"max":[1,1]},{"bufferView":16,"byteOffset":0,"componentType":5123,"count":4008,"type":"SCALAR","min":[0],"max":[2177]},{"bufferView":17,"byteOffset":0,"componentType":5126,"count":2178,"type":"VEC3","min":[0.5381112098693848,-0.37265315651893616,-4.892563819885254],"max":[19.61981773376465,0.37265315651893616,0.06372369825839996]},{"bufferView":18,"byteOffset":0,"componentType":5126,"count":2178,"type":"VEC3","min":[-0.9999998211860657,-1,-0.9999967813491821],"max":[0.9999996423721313,1,0.9999985098838806]},{"bufferView":19,"byteOffset":0,"componentType":5126,"count":2178,"type":"VEC2","min":[0,0],"max":[1,1]},{"bufferView":20,"byteOffset":0,"componentType":5123,"count":6096,"type":"SCALAR","min":[0],"max":[3304]},{"bufferView":21,"byteOffset":0,"componentType":5126,"count":3305,"type":"VEC3","min":[0.6971386075019836,-1.1179594993591309,-32.96086502075195],"max":[27.766626358032227,1.1179594993591309,0.04704214632511139]},{"bufferView":22,"byteOffset":0,"componentType":5126,"count":3305,"type":"VEC3","min":[-1,-1,-1],"max":[1,1,0.9999997019767761]},{"bufferView":23,"byteOffset":0,"componentType":5126,"count":3305,"type":"VEC2","min":[0,0],"max":[1,1]},{"bufferView":24,"byteOffset":0,"componentType":5123,"count":4464,"type":"SCALAR","min":[0],"max":[2453]},{"bufferView":25,"byteOffset":0,"componentType":5126,"count":2454,"type":"VEC3","min":[-12.336803436279297,-1.1179596185684204,-14.260306358337402],"max":[10.453486442565918,1.1179596185684204,19.56953239440918]},{"bufferView":26,"byteOffset":0,"componentType":5126,"count":2454,"type":"VEC3","min":[-0.9999992847442627,-1,-1],"max":[0.9999994039535522,1,0.9999765753746033]},{"bufferView":27,"byteOffset":0,"componentType":5126,"count":2454,"type":"VEC2","min":[0,0],"max":[1,1]},{"bufferView":28,"byteOffset":0,"componentType":5123,"count":15120,"type":"SCALAR","min":[0],"max":[5482]},{"bufferView":29,"byteOffset":0,"componentType":5126,"count":5483,"type":"VEC3","min":[-37.3870849609375,-45.28540802001953,-37.42138671875],"max":[37.1917839050293,45.28540802001953,37.265316009521484]},{"bufferView":30,"byteOffset":0,"componentType":5126,"count":5483,"type":"VEC3","min":[-1,-1,-1],"max":[1,1,1]},{"bufferView":31,"byteOffset":0,"componentType":5126,"count":5483,"type":"VEC2","min":[0,0],"max":[0.9998999834060669,1]}],"extensions":{"KHR_lights_punctual":{"lights":[{"type":"directional","name":"Directional Light","color":[1,1,1],"intensity":0},{"type":"point","name":"Point Light","color":[1,1,1],"intensity":1,"range":2000}]}},"extensionsUsed":["KHR_lights_punctual"]}