<svg id="visual" viewBox="0 0 960 540" width="960" height="540" xmlns="http://www.w3.org/2000/svg" xmlns:xlink="http://www.w3.org/1999/xlink" version="1.1"><rect x="0" y="0" width="960" height="540" fill="#21211C"></rect><path d="M0 372L137 342L274 324L411 349L549 353L686 379L823 368L960 324L960 541L823 541L686 541L549 541L411 541L274 541L137 541L0 541Z" fill="#90907b"></path><path d="M0 386L137 366L274 372L411 428L549 378L686 422L823 405L960 367L960 541L823 541L686 541L549 541L411 541L274 541L137 541L0 541Z" fill="#727261"></path><path d="M0 446L137 396L274 437L411 393L549 433L686 417L823 396L960 417L960 541L823 541L686 541L549 541L411 541L274 541L137 541L0 541Z" fill="#555549"></path><path d="M0 483L137 448L274 470L411 485L549 484L686 462L823 433L960 478L960 541L823 541L686 541L549 541L411 541L274 541L137 541L0 541Z" fill="#3a3a32"></path><path d="M0 514L137 487L274 479L411 506L549 495L686 500L823 490L960 512L960 541L823 541L686 541L549 541L411 541L274 541L137 541L0 541Z" fill="#21211c"></path></svg>